<svg width="16" height="22" viewBox="26.4 21.8 15.6 21.6" fill="none" xmlns="http://www.w3.org/2000/svg">
<circle cx="1.51403" cy="1.51403" r="1.51403" transform="matrix(0.695204 0.718812 -0.695204 0.718812 38.7518 31.3223)" fill="#F6FFFE"></circle>
<circle cx="1.51403" cy="1.51403" r="1.51403" transform="matrix(0.695204 -0.718812 0.695204 0.718812 33.479 30.2246)" fill="#F6FFFE"></circle>
<circle cx="1.51403" cy="1.51403" r="1.51403" transform="matrix(0.695204 -0.718812 0.695204 0.718812 30.312 26.9512)" fill="#F6FFFE"></circle>
<circle cx="1.51403" cy="1.51403" r="1.51403" transform="matrix(0.695204 -0.718812 0.695204 0.718812 27.1432 23.6758)" fill="#F6FFFE"></circle>
<circle cx="1.51403" cy="1.51403" r="1.51403" transform="matrix(0.695204 0.718812 -0.695204 0.718812 32.4161 37.873)" fill="#F6FFFE"></circle>
<circle cx="1.51403" cy="1.51403" r="1.51403" transform="matrix(0.695204 0.718812 -0.695204 0.718812 35.5831 34.5977)" fill="#F6FFFE"></circle>
<circle cx="1.51403" cy="1.51403" r="1.51403" transform="matrix(0.695204 0.718812 -0.695204 0.718812 29.2507 41.1465)" fill="#F6FFFE"></circle>
</svg>