<svg width="16" height="22" viewBox="27.4 21.8 15.6 21.6" fill="none" xmlns="http://www.w3.org/2000/svg">
<circle cx="1.51403" cy="1.51403" r="1.51403" transform="matrix(-0.695204 0.718812 0.695204 0.718812 29.2483 31.3223)" fill="white"></circle>
<circle cx="1.51403" cy="1.51403" r="1.51403" transform="matrix(-0.695204 -0.718812 -0.695204 0.718812 34.5211 30.2246)" fill="white"></circle>
<circle cx="1.51403" cy="1.51403" r="1.51403" transform="matrix(-0.695204 -0.718812 -0.695204 0.718812 37.6881 26.9512)" fill="white"></circle>
<circle cx="1.51403" cy="1.51403" r="1.51403" transform="matrix(-0.695204 -0.718812 -0.695204 0.718812 40.8568 23.6758)" fill="white"></circle>
<circle cx="1.51403" cy="1.51403" r="1.51403" transform="matrix(-0.695204 0.718812 0.695204 0.718812 35.584 37.873)" fill="white"></circle>
<circle cx="1.51403" cy="1.51403" r="1.51403" transform="matrix(-0.695204 0.718812 0.695204 0.718812 32.417 34.5977)" fill="white"></circle>
<circle cx="1.51403" cy="1.51403" r="1.51403" transform="matrix(-0.695204 0.718812 0.695204 0.718812 38.7494 41.1465)" fill="white"></circle>
</svg>